<?xml version="1.0" encoding="UTF-8"?>
<svg id="Layer_2" data-name="Layer 2" xmlns="http://www.w3.org/2000/svg" viewBox="0 0 700.84 313.55">
  <defs>
    <style>
      .cls-1 {
        fill: none;
      }

      .cls-1, .cls-2, .cls-3, .cls-4, .cls-5, .cls-6 {
        stroke-width: 0px;
      }

      .cls-2 {
        fill: #01974f;
      }

      .cls-3 {
        fill: #e93a56;
      }

      .cls-4 {
        fill: #000;
      }

      .cls-5 {
        fill: #0181c8;
      }

      .cls-6 {
        fill: #f7ac33;
      }
    </style>
  </defs>
  <g id="Layer_1-2" data-name="Layer 1">
    <path class="cls-1" d="M465.05,110.4c-2.38,9.27-3.67,18.79-3.67,28.33,0,39.33,18.97,60.78,56.56,64.38,1.07-6.77,1.62-13.77,1.62-20.95,0-43.66-19.01-68.07-54.51-71.76Z"/>
    <path class="cls-1" d="M537.94,182.16c0,7.27-.53,14.38-1.53,21.29,56.53-3.53,99.58-52.45,99.58-115.72,0-47.53-22.51-72.27-64.33-72.27s-84.22,35.48-101.72,79.9c43.3,5.58,68,36.59,68,86.8Z"/>
    <path class="cls-1" d="M222,138.73c0-9.54,1.15-19.03,3.28-28.31-5.47.63-10.91,1.83-16.26,3.53-8.63,47.48-40.41,84.72-83.18,98.92-1.24,6.7-1.89,13.49-1.89,20.29,0,43.28,22.97,64.92,68.46,64.92,48.16,0,87.65-32.66,101.15-79.75-46.35-4.87-71.57-32.74-71.57-79.61Z"/>
    <path class="cls-1" d="M244.05,110.4c-2.38,9.27-3.67,18.79-3.67,28.33,0,39.33,18.97,60.78,56.56,64.38,1.07-6.77,1.62-13.77,1.62-20.95,0-43.66-19.01-68.07-54.51-71.76Z"/>
    <path class="cls-1" d="M414.12,103.03c.57-4.99.86-10.1.86-15.31,0-47.53-22.51-72.27-64.33-72.27s-84.22,35.48-101.72,79.9c43.3,5.58,68,36.59,68,86.8,0,7.27-.53,14.38-1.53,21.29,5.22-.33,10.33-1.03,15.3-2.11,11.21-43.46,44.05-81.81,83.42-98.31Z"/>
    <path class="cls-1" d="M192.07,103.47c.6-5.13.91-10.39.91-15.74,0-47.53-22.51-72.27-64.33-72.27-55.6,0-110.28,61.06-110.28,123.28,0,43.28,22.97,64.92,68.46,64.92,7.9,0,15.57-.89,22.93-2.57,11.17-42.97,43.47-80.92,82.3-97.62Z"/>
    <path class="cls-1" d="M410.34,122.71c-25.98,14.92-47.85,41.4-58.47,71.49,28.11-13.11,49.48-38.92,58.47-71.49Z"/>
    <path class="cls-1" d="M188.14,123.41c-25.3,14.95-46.55,40.84-57.08,70.24,27.32-13.18,48.11-38.45,57.08-70.24Z"/>
    <path class="cls-1" d="M443,138.73c0-9.54,1.15-19.03,3.28-28.31-5.11.59-10.19,1.67-15.2,3.2-8.61,48.03-40.89,85.64-84.3,99.6-1.2,6.58-1.83,13.25-1.83,19.94,0,43.28,22.97,64.92,68.46,64.92,48.16,0,87.65-32.66,101.15-79.75-46.35-4.87-71.57-32.74-71.57-79.61Z"/>
    <path class="cls-6" d="M308.84,219.11c-5.32,0-10.42-.26-15.28-.77-13.5,47.09-52.99,79.75-101.15,79.75-45.49,0-68.46-21.64-68.46-64.92,0-6.8.65-13.59,1.89-20.29,1.21-6.52,2.97-12.96,5.22-19.23,10.53-29.4,31.78-55.29,57.08-70.24,1.81-6.4,3.13-13.06,3.93-19.94-38.83,16.7-71.13,54.65-82.3,97.62-1.41,5.42-2.48,10.93-3.19,16.48-.66,5.17-1.01,10.38-1.01,15.6,0,51.78,30.79,80.38,86.84,80.38s105.2-39.05,119.81-94.48c-1.12.03-2.25.05-3.38.05Z"/>
    <path class="cls-5" d="M128.66,0C62.49,0,0,68.01,0,138.73c0,51.78,30.79,80.38,86.84,80.38,6.74,0,13.33-.53,19.74-1.55.71-5.55,1.78-11.05,3.19-16.48-7.36,1.68-15.02,2.57-22.93,2.57-45.49,0-68.46-21.64-68.46-64.92,0-62.22,54.68-123.28,110.28-123.28,41.81,0,64.33,24.73,64.33,72.27,0,5.36-.31,10.61-.91,15.74-.8,6.88-2.13,13.54-3.93,19.94-8.97,31.79-29.76,57.06-57.08,70.24-2.25,6.28-4.01,12.71-5.22,19.23,42.77-14.2,74.55-51.45,83.18-98.92.99-5.46,1.68-11.06,2.04-16.78.2-3.12.3-6.27.3-9.46C211.36,32.07,181.04,0,128.66,0Z"/>
    <path class="cls-4" d="M315.4,203.44c-2.17.14-4.35.21-6.56.21-4.16,0-8.13-.19-11.91-.55-37.59-3.6-56.56-25.05-56.56-64.38,0-9.54,1.29-19.06,3.67-28.33-3.15-.33-6.41-.51-9.82-.51-2.99,0-5.98.19-8.95.53-2.13,9.28-3.28,18.77-3.28,28.31,0,46.87,25.22,74.74,71.57,79.61,4.86.51,9.95.77,15.28.77,1.13,0,2.26-.02,3.38-.05,5.21-.14,10.33-.59,15.34-1.34.7-5.52,1.75-10.99,3.15-16.39-4.97,1.08-10.08,1.78-15.3,2.11Z"/>
    <path class="cls-6" d="M248.94,95.36c-4.69-.6-9.59-.92-14.71-.92-1.43,0-2.86.04-4.28.11-6.36.28-12.67,1.18-18.89,2.64-.36,5.71-1.05,11.31-2.04,16.78,5.35-1.71,10.78-2.9,16.26-3.53,2.98-.34,5.96-.53,8.95-.53,3.41,0,6.67.18,9.82.51,35.5,3.69,54.51,28.1,54.51,71.76,0,7.18-.55,14.18-1.62,20.95,3.78.36,7.75.55,11.91.55,2.21,0,4.39-.08,6.56-.21,1.01-6.91,1.53-14.01,1.53-21.29,0-50.21-24.7-81.22-68-86.8Z"/>
    <path class="cls-2" d="M529.84,219.11c-5.32,0-10.42-.26-15.28-.77-13.5,47.09-52.99,79.75-101.15,79.75-45.49,0-68.46-21.64-68.46-64.92,0-6.68.64-13.35,1.83-19.94,1.17-6.45,2.89-12.82,5.08-19.03,10.62-30.1,32.49-56.57,58.47-71.49,1.74-6.32,3.02-12.9,3.79-19.68-39.37,16.49-72.2,54.84-83.42,98.31-1.39,5.4-2.45,10.87-3.15,16.39-.65,5.12-.99,10.27-.99,15.45,0,51.78,30.79,80.38,86.84,80.38s105.2-39.05,119.81-94.48c-1.12.03-2.25.05-3.38.05Z"/>
    <path class="cls-4" d="M350.66,0c-52.07,0-101.86,42.13-120.71,94.54,1.43-.06,2.85-.11,4.28-.11,5.12,0,10.02.32,14.71.92,17.5-44.42,59.34-79.9,101.72-79.9s64.33,24.73,64.33,72.27c0,5.21-.29,10.31-.86,15.31-.77,6.79-2.05,13.36-3.79,19.68-8.99,32.58-30.36,58.39-58.47,71.49-2.19,6.21-3.91,12.58-5.08,19.03,43.4-13.96,75.69-51.58,84.3-99.6.97-5.43,1.64-11,1.99-16.68.19-3.04.29-6.12.29-9.22,0-55.65-30.33-87.72-82.71-87.72Z"/>
    <path class="cls-2" d="M469.94,95.36c-4.69-.6-9.59-.92-14.71-.92-1.43,0-2.86.04-4.28.11-6.01.27-11.99,1.08-17.87,2.4-.35,5.68-1.02,11.25-1.99,16.68,5.01-1.53,10.08-2.61,15.2-3.2,2.98-.34,5.96-.53,8.95-.53,3.41,0,6.67.18,9.82.51,35.5,3.69,54.51,28.1,54.51,71.76,0,7.18-.55,14.18-1.62,20.95,3.78.36,7.75.55,11.91.55,2.21,0,4.39-.08,6.56-.21,1.01-6.91,1.53-14.01,1.53-21.29,0-50.21-24.7-81.22-68-86.8Z"/>
    <path class="cls-3" d="M571.66,0c-52.07,0-101.86,42.13-120.71,94.54,1.43-.06,2.85-.11,4.28-.11,5.12,0,10.02.32,14.71.92,17.5-44.42,59.34-79.9,101.72-79.9s64.33,24.73,64.33,72.27c0,63.27-43.05,112.19-99.58,115.72-2.17.14-4.35.21-6.56.21-4.16,0-8.13-.19-11.91-.55-37.59-3.6-56.56-25.05-56.56-64.38,0-9.54,1.29-19.06,3.67-28.33-3.15-.33-6.41-.51-9.82-.51-2.99,0-5.98.19-8.95.53-2.13,9.28-3.28,18.77-3.28,28.31,0,46.87,25.22,74.74,71.57,79.61,4.86.51,9.95.77,15.28.77,1.13,0,2.26-.02,3.38-.05,68.65-1.8,121.14-58.34,121.14-131.35,0-55.65-30.33-87.72-82.71-87.72Z"/>
    <path class="cls-4" d="M337.09,148.63c5.23,3.24,10.27,6.76,15.14,10.52l-3.34-2.58c14.14,10.97,26.65,23.89,37.6,38.02l-2.58-3.34c12.01,15.57,22.1,32.54,30.37,50.37,2.12,4.57,7.35,7.25,12.05,7.88,4.99.67,10.33-.71,13.86-4.54,23.79-25.77,49.15-50.1,76.07-72.59,7.4-6.19,14.93-12.23,22.56-18.13l-3.34,2.58c18.41-14.21,37.47-27.58,57.16-39.96,19.14-12.03,38.87-23.12,59.13-33.13,11.28-5.58,22.72-10.81,34.3-15.71l-3.94,1.66c2.19-.92,4.37-1.83,6.57-2.73,2.15-.51,4.02-1.49,5.61-2.95,1.8-1.16,3.21-2.71,4.25-4.63,2.07-3.54,2.95-8.75,1.66-12.71s-3.77-7.84-7.58-9.86-8.7-3.3-12.71-1.66c-19.45,7.95-38.56,16.67-57.19,26.38s-35.3,19.47-52.27,30.35c-17.34,11.12-34.18,23.01-50.5,35.57-17.67,13.6-34.84,27.79-51.35,42.78-15.98,14.51-31.37,29.66-46.15,45.38-1.88,2-3.75,4.01-5.62,6.03,8.64,1.11,17.28,2.23,25.91,3.34-7.66-16.5-16.86-32.29-27.72-46.88-10.79-14.49-22.69-28.06-36.51-39.74-7.83-6.62-16.09-12.81-24.8-18.22-3.58-2.22-8.69-2.77-12.71-1.66s-7.98,4.01-9.86,7.58c-4.27,8.08-1.92,17.71,5.92,22.58h0Z"/>
  </g>
</svg>
